<?xml version="1.0" standalone="no"?>
<!DOCTYPE svg PUBLIC "-//W3C//DTD SVG 20010904//EN"
 "http://www.w3.org/TR/2001/REC-SVG-20010904/DTD/svg10.dtd">
<svg version="1.0" xmlns="http://www.w3.org/2000/svg"
 width="700.000000pt" height="700.000000pt" viewBox="0 0 700.000000 700.000000"
 preserveAspectRatio="xMidYMid meet">
<metadata>
Created by potrace 1.14, written by Peter Selinger 2001-2017
</metadata>
<g transform="translate(0.000000,700.000000) scale(0.100000,-0.100000)"
fill="#000000" stroke="none">
<path d="M3258 6990 c-620 -46 -1198 -244 -1708 -585 -332 -222 -667 -547
-897 -870 -348 -490 -557 -1036 -629 -1645 -21 -177 -24 -562 -5 -730 80 -726
352 -1368 806 -1905 600 -709 1392 -1129 2330 -1237 180 -20 589 -15 780 11
801 108 1482 441 2039 998 553 552 890 1240 997 2038 26 191 31 600 11 780
-107 935 -532 1738 -1232 2327 -534 449 -1166 722 -1864 803 -162 19 -475 26
-628 15z m577 -556 c696 -75 1362 -416 1835 -940 428 -473 683 -1033 755
-1659 8 -73 15 -217 15 -330 0 -457 -90 -863 -281 -1264 -281 -591 -751 -1073
-1329 -1365 -382 -193 -755 -293 -1180 -315 -1271 -66 -2434 683 -2903 1869
-134 339 -199 687 -200 1070 0 392 63 732 200 1080 301 762 896 1359 1659
1666 449 180 924 242 1429 188z"/>
<path d="M2459 5860 c-127 -32 -244 -112 -328 -227 -43 -60 -111 -202 -111
-234 0 -10 -4 -20 -9 -23 -14 -9 -30 -92 -46 -240 -45 -401 23 -1010 170
-1526 72 -250 216 -688 266 -808 42 -98 57 -152 43 -152 -5 0 -54 14 -108 30
-112 34 -199 39 -234 14 -17 -12 -22 -25 -22 -60 0 -47 -11 -54 -44 -29 -11 8
-30 15 -42 15 -13 0 -25 4 -29 9 -3 5 -31 19 -63 31 -31 12 -64 27 -72 34 -8
8 -26 16 -40 19 -14 3 -53 16 -87 28 -73 25 -126 20 -145 -14 -22 -41 -13
-121 21 -192 46 -92 113 -156 289 -274 85 -56 175 -118 200 -137 61 -47 135
-84 169 -84 22 0 45 18 108 85 74 79 84 86 134 95 29 5 73 10 96 10 36 0 44
-4 48 -22 6 -27 82 -232 91 -247 3 -5 54 -12 113 -16 91 -6 112 -11 135 -30
17 -15 35 -21 48 -18 12 3 29 -2 40 -12 14 -13 42 -19 93 -23 69 -4 73 -3 84
19 5 13 27 44 47 68 20 24 52 72 72 107 20 36 52 76 71 91 18 14 45 46 59 70
l26 43 214 0 215 0 14 -33 c7 -18 48 -134 91 -257 42 -124 92 -269 110 -323
44 -125 107 -252 137 -272 39 -25 138 -55 182 -55 53 0 96 30 193 136 104 113
188 235 265 387 60 117 69 143 83 231 10 66 26 125 50 179 63 144 93 319 59
347 -7 6 -44 17 -81 23 l-66 11 -27 -32 c-33 -41 -79 -89 -120 -123 -27 -24
-31 -33 -31 -79 0 -49 -3 -54 -49 -98 -27 -26 -59 -65 -70 -87 -26 -51 -26
-29 -1 69 52 197 66 466 30 569 -11 31 -20 71 -20 88 0 19 -24 79 -59 148 -33
64 -67 140 -76 169 -23 69 -46 102 -200 284 -311 367 -526 550 -707 603 -32 9
-60 20 -63 25 -3 4 -28 13 -56 20 -47 12 -52 16 -71 59 -10 25 -29 113 -40
195 l-20 149 66 131 c36 72 71 156 77 185 32 152 -71 364 -294 605 -179 194
-342 296 -542 341 -129 29 -137 29 -236 5z m252 -39 c41 -10 101 -31 133 -45
278 -123 607 -497 648 -735 17 -98 1 -169 -67 -309 l-56 -113 -39 59 c-22 32
-62 80 -89 105 l-50 47 -94 0 c-80 0 -100 -4 -144 -25 -116 -58 -201 -172
-190 -255 3 -21 14 -52 24 -67 20 -29 74 -167 103 -264 10 -31 36 -84 60 -119
37 -55 40 -64 26 -72 -25 -14 -19 -32 29 -86 46 -51 53 -70 35 -88 -18 -18
-40 -170 -29 -206 12 -44 11 -105 -2 -204 -11 -76 -10 -87 15 -173 31 -109 55
-159 102 -210 48 -54 82 -66 127 -47 47 19 83 71 132 189 43 103 53 111 87 66
18 -24 18 -33 9 -147 -6 -68 -8 -154 -5 -191 l7 -69 -59 -6 c-219 -23 -394
-64 -447 -106 -14 -11 -40 -20 -58 -20 -18 0 -51 -11 -73 -24 -33 -19 -61 -24
-148 -29 -58 -4 -127 -14 -153 -23 -26 -8 -48 -14 -49 -12 -21 30 -311 915
-345 1053 -130 523 -192 1065 -162 1405 14 160 23 207 63 325 35 105 73 168
159 260 82 88 102 100 200 129 104 31 199 33 300 7z m509 -3591 c0 -40 -51
-97 -100 -110 -21 -6 -60 -29 -87 -51 -26 -22 -61 -47 -76 -55 -33 -18 -149
-30 -198 -20 -33 6 -35 9 -73 117 -21 60 -36 112 -34 115 3 2 113 8 247 13
133 4 244 11 248 15 3 3 21 6 40 6 30 0 33 -3 33 -30z"/>
</g>
</svg>
